<svg xmlns="http://www.w3.org/2000/svg" xmlns:xlink="http://www.w3.org/1999/xlink" width="20" height="20" viewBox="0 0 20 20">
    <defs>
        <path id="a" d="M5.549 8.928l-.44-1.298a5.495 5.495 0 0 1-.104-.291 8.906 8.906 0 0 1-.11-.363 5.122 5.122 0 0 1-.209.66L4.25 8.929H5.55zm1.747 1.812h-.853a.372.372 0 0 1-.23-.066.424.424 0 0 1-.134-.171l-.28-.826H3.997l-.28.826a.395.395 0 0 1-.129.164.359.359 0 0 1-.23.073H2.5L4.335 6h1.126l1.835 4.74zm3.318-3.868H9.28v3.868h-1.1V6.872H6.848V6h3.767v.872zM16.5 6v4.74h-.97V8.014a4.672 4.672 0 0 1 .023-.43l-1.259 2.437a.414.414 0 0 1-.384.231h-.15a.414.414 0 0 1-.384-.231l-1.259-2.443c.007.078.012.155.017.23.004.074.006.143.006.206v2.726h-.97V6h.84c.048 0 .09.001.125.003a.32.32 0 0 1 .096.02c.029.01.054.027.077.05a.398.398 0 0 1 .067.096l1.22 2.405a4.719 4.719 0 0 1 .24.53c.037-.096.076-.189.116-.28.04-.091.083-.178.128-.26l1.217-2.395a.398.398 0 0 1 .067-.096.218.218 0 0 1 .076-.05.32.32 0 0 1 .096-.02c.036-.002.078-.003.126-.003h.839z"/>
    </defs>
    <g fill="none" fill-rule="evenodd" transform="translate(0 1)">
        <path fill="#081526" fill-opacity=".05" fill-rule="nonzero" d="M18.696 0H1.304C.584 0 0 .7 0 1.565v14.609c0 .864.584 1.565 1.304 1.565h17.392c.72 0 1.304-.7 1.304-1.565V1.565C20 .701 19.416 0 18.696 0z"/>
        <mask id="b" fill="#fff">
            <use xlink:href="#a"/>
        </mask>
        <g mask="url(#b)" opacity=".3">
            <path fill="#000" d="M0-1h20v20H0z"/>
        </g>
    </g>
</svg>
