<svg xmlns="http://www.w3.org/2000/svg" xmlns:xlink="http://www.w3.org/1999/xlink" width="20" height="20" viewBox="0 0 20 20">
    <defs>
        <path id="a" d="M1.491 8.636c-.318-.86-.548-1.736-.479-2.668a2.18 2.18 0 0 1 .68-1.466c.457-.432.889-.885 1.338-1.323.585-.578 1.32-.574 1.905 0 .361.354.72.716 1.078 1.078.347.347.698.694 1.045 1.045.61.618.614 1.338.004 1.952-.439.439-.874.881-1.32 1.312-.117.114-.128.209-.065.351.292.702.716 1.327 1.191 1.912.958 1.177 2.04 2.222 3.33 3.03.278.172.581.3.87.457.15.08.249.055.37-.07.434-.449.88-.891 1.326-1.333.585-.578 1.316-.582 1.9 0 .717.709 1.43 1.421 2.14 2.138.595.6.591 1.334-.008 1.937-.406.41-.834.797-1.214 1.225-.555.621-1.257.826-2.054.782-1.162-.062-2.233-.45-3.268-.95a17.782 17.782 0 0 1-5.896-4.613c-1.213-1.448-2.215-3.02-2.873-4.796zM19 9.944C19 5.014 14.987 1 10.056 1v1.703c3.991 0 7.24 3.25 7.24 7.241H19zm-4.898 0h1.703c0-3.169-2.58-5.75-5.75-5.75v1.704a4.02 4.02 0 0 1 2.863 1.184 4.02 4.02 0 0 1 1.184 2.862z"/>
    </defs>
    <use fill="#081526" fill-rule="evenodd" xlink:href="#a"/>
</svg>
