<svg xmlns="http://www.w3.org/2000/svg" xmlns:xlink="http://www.w3.org/1999/xlink" width="20" height="20" viewBox="0 0 20 20">
    <defs>
        <path id="a" d="M14.623 1.004L12.225 1C9.53 1 7.789 2.739 7.789 5.43v2.042H5.377A.372.372 0 0 0 5 7.84v2.96c0 .203.169.367.377.367H7.79v7.467c0 .203.169.367.377.367h3.146a.372.372 0 0 0 .378-.367v-7.467h2.82a.372.372 0 0 0 .376-.367l.002-2.96c0-.097-.04-.19-.11-.26a.383.383 0 0 0-.268-.107h-2.82V5.741c0-.832.203-1.255 1.317-1.255h1.616A.372.372 0 0 0 15 4.119V1.37a.372.372 0 0 0-.377-.367z"/>
    </defs>
    <use fill="#081526" fill-rule="evenodd" xlink:href="#a"/>
</svg>
