<svg xmlns="http://www.w3.org/2000/svg" width="20" height="20" viewBox="0 0 20 20">
    <g fill="none" fill-rule="nonzero" transform="translate(0 1)">
        <path fill="#003564" d="M18.696 0H1.304C.584 0 0 .7 0 1.565v14.609c0 .864.584 1.565 1.304 1.565h17.392c.72 0 1.304-.7 1.304-1.565V1.565C20 .701 19.416 0 18.696 0z"/>
        <circle cx="7.391" cy="8.87" r="4.174" fill="#F01524"/>
        <path fill="#376BD1" d="M12 12.125c.049-.039.092-.084.14-.125h-.28c.048.041.091.086.14.125z"/>
        <path fill="#FEB415" d="M12.609 4.696c-1.318 0-2.49.612-3.256 1.565h1.294c.13.163.245.34.351.522H8.997a4.1 4.1 0 0 0-.256.521h2.514c.068.17.128.343.174.522H8.571c-.043.17-.078.344-.1.522h3.06a4.2 4.2 0 0 1 .034.522h-3.13c0 .176.014.35.036.521h3.06a4.191 4.191 0 0 1-.102.522H8.571c.046.178.102.353.17.522h2.514c-.074.18-.16.355-.256.522H8.998c.106.183.224.357.355.521h1.294c-.152.19-.325.362-.508.522H9.854a4.153 4.153 0 0 0 2.754 1.043 4.174 4.174 0 0 0 0-8.347z"/>
    </g>
</svg>
