<svg xmlns="http://www.w3.org/2000/svg" xmlns:xlink="http://www.w3.org/1999/xlink" width="52" height="52" viewBox="0 0 52 52">
    <defs>
        <path id="a" d="M26 51C12.193 51 1 39.807 1 26S12.193 1 26 1s25 11.193 25 25-11.193 25-25 25zm0-2c12.703 0 23-10.297 23-23S38.703 3 26 3 3 13.297 3 26s10.297 23 23 23zm6.887-24.387c.447.267.447.94 0 1.218l-10.882 6.52c-.446.267-1.005-.07-1.005-.603V18.697c0-.534.559-.87 1.005-.604l10.882 6.52z"/>
    </defs>
    <use fill="#081526" fill-rule="evenodd" xlink:href="#a"/>
</svg>
