<svg xmlns="http://www.w3.org/2000/svg" xmlns:xlink="http://www.w3.org/1999/xlink" width="20" height="20" viewBox="0 0 20 20">
    <defs>
        <path id="a" d="M18.98 4.668a.083.083 0 0 0-.099-.023 6.745 6.745 0 0 1-1.593.488 3.573 3.573 0 0 0 1.243-1.766c.011-.034 0-.071-.027-.093a.084.084 0 0 0-.096-.007 6.772 6.772 0 0 1-2.12.828A3.535 3.535 0 0 0 13.737 3C11.786 3 10.2 4.604 10.2 6.576c0 .239.023.475.068.705a9.72 9.72 0 0 1-6.946-3.61.084.084 0 0 0-.138.01 3.604 3.604 0 0 0-.48 1.798c0 1.097.493 2.122 1.332 2.799a3.355 3.355 0 0 1-1.234-.404.083.083 0 0 0-.083 0 .086.086 0 0 0-.043.073v.046a3.584 3.584 0 0 0 2.487 3.416 3.361 3.361 0 0 1-1.176-.017.085.085 0 0 0-.097.11 3.545 3.545 0 0 0 3.071 2.471 6.75 6.75 0 0 1-4.053 1.337c-.272 0-.545-.017-.814-.049a.086.086 0 0 0-.055.157A9.793 9.793 0 0 0 7.378 17c6.203 0 9.91-5.094 9.91-10.019 0-.137-.003-.273-.009-.41a7.1 7.1 0 0 0 1.707-1.801.086.086 0 0 0-.006-.102z"/>
    </defs>
    <g fill="none" fill-rule="evenodd">
        <mask id="b" fill="#fff">
            <use xlink:href="#a"/>
        </mask>
        <g mask="url(#b)">
            <path fill="#081526" d="M0 0h20v20H0z"/>
            <path fill="#000" d="M0 0h20v20H0z" opacity=".7"/>
        </g>
    </g>
</svg>
