<svg xmlns="http://www.w3.org/2000/svg" width="20" height="20" viewBox="0 0 20 20">
    <g fill="none" fill-rule="nonzero">
        <path fill="#E6E6E6" d="M0 5h20v9.913H0z"/>
        <path fill="#E79800" d="M1.565 18.774h16.87c.864 0 1.565-.7 1.565-1.565V14.6H0v2.609c0 .864.7 1.565 1.565 1.565z"/>
        <path fill="#1A1876" d="M18.435 1H1.565C.701 1 0 1.7 0 2.565v2.609h20V2.565C20 1.701 19.3 1 18.435 1z"/>
        <g fill="#1A1876">
            <path d="M7.215 12.374h1.362l.852-4.996H8.067zM12.175 9.384c-.476-.231-.768-.386-.765-.62 0-.207.247-.43.78-.43.436-.006.788.083 1.142.25l.185-1.084a3.516 3.516 0 0 0-1.22-.21c-1.346 0-2.294.678-2.302 1.65-.008.717.676 1.118 1.193 1.357.53.245.709.401.706.62-.003.335-.423.488-.815.488-.604 0-.909-.094-1.457-.342L9.43 12.18c.318.14.906.26 1.517.267 1.432 0 2.36-.67 2.371-1.707.004-.568-.359-1-1.144-1.357zM17.008 7.382h-1.052c-.326 0-.57.09-.714.415l-2.022 4.578h1.43s.234-.615.287-.75l1.744.002c.041.175.166.748.166.748h1.264l-1.103-4.993zm-1.679 3.221c.056-.144.612-1.57.723-1.873.184.861.005.025.408 1.873h-1.131zM6.073 7.381L4.74 10.788l-.142-.692L4.12 7.8c-.083-.316-.322-.41-.618-.422H1.307l-.017.104a5.74 5.74 0 0 1 1.43.548l1.211 4.34 1.441-.002L7.516 7.38H6.073z"/>
        </g>
    </g>
</svg>
