<svg xmlns="http://www.w3.org/2000/svg" xmlns:xlink="http://www.w3.org/1999/xlink" width="16" height="16" viewBox="0 0 16 16">
    <defs>
        <path id="a" d="M12.944 3.19C12.262 2.422 11.354 2 10.39 2c-.965 0-1.774.422-2.457 1.19l-.433.696-.433-.696C6.385 2.422 5.575 2 4.61 2c-.965 0-1.872.422-2.554 1.19-1.408 1.585-1.408 4.163 0 5.748l5.046 4.878a.533.533 0 0 0 .401.184.526.526 0 0 0 .395-.184l5.046-4.878c1.408-1.585 1.408-4.163 0-5.748z"/>
    </defs>
    <use fill="#081526" fill-rule="evenodd" xlink:href="#a"/>
</svg>
