<svg xmlns="http://www.w3.org/2000/svg" width="20" height="20" viewBox="0 0 20 20">
    <path fill="#081526" fill-rule="evenodd" d="M16.7 4.388c1.733 1.85 1.733 4.858 0 6.706l-6.21 5.691a.663.663 0 0 1-.98 0L3.3 11.094c-1.733-1.848-1.733-4.857 0-6.706C4.14 3.493 5.256 3 6.443 3c1.187 0 2.184.493 3.024 1.388L10 5l.533-.612C11.373 3.493 12.37 3 13.557 3s2.303.493 3.143 1.388zM10 14.521l5.285-4.843c.968-1.084.953-2.858-.044-3.922C14.776 5.26 14.187 5 13.557 5c-.584 0-1.068.226-1.516.703L10 8.043 8.493 6.314l-.485-.558C7.51 5.226 7.028 5 6.443 5c-.63 0-1.22.26-1.684.756-.997 1.064-1.012 2.838-.044 3.922L10 14.52z"/>
</svg>
